<?xml version="1.0" standalone="no"?>
<!DOCTYPE svg PUBLIC "-//W3C//DTD SVG 20010904//EN"
 "http://www.w3.org/TR/2001/REC-SVG-20010904/DTD/svg10.dtd">
<svg version="1.0" xmlns="http://www.w3.org/2000/svg"
 width="1920.000000pt" height="1200.000000pt" viewBox="0 0 1920.000000 1200.000000"
 preserveAspectRatio="xMidYMid meet">
<metadata>
Created by potrace 1.15, written by Peter Selinger 2001-2017
</metadata>
<g transform="translate(0.000000,1200.000000) scale(0.100000,-0.100000)"
fill="#000000" stroke="none">
<path d="M0 6000 l0 -6000 9600 0 9600 0 0 4289 c0 3422 -3 4291 -12 4295 -10
5 -10 7 -1 12 10 4 13 355 13 1705 l0 1699 -9600 0 -9600 0 0 -6000z m16266
-4512 l389 -83 380 -5 380 -6 -362 -2 -362 -2 -238 50 c-131 27 -281 58 -333
69 -200 41 -255 53 -259 57 -9 9 31 1 405 -78z m-1642 -193 l292 -95 452 -2
c249 -1 458 -5 464 -10 7 -4 -192 -8 -442 -8 l-454 0 -308 100 c-268 88 -330
110 -302 110 4 0 138 -43 298 -95z m-5518 -627 c-6 -21 -19 -45 -28 -55 -8
-10 -39 -62 -68 -115 l-52 -98 -659 0 -660 0 -43 -25 c-54 -32 -65 -32 -29 0
28 24 27 26 -17 29 -8 1 -15 6 -15 11 0 7 242 11 700 12 547 2 702 6 711 15 7
7 38 58 70 113 88 155 117 191 90 113z m2618 -319 c-5 -9 133 -257 158 -285
21 -24 24 -44 5 -44 -6 0 -18 12 -24 28 -20 44 -143 255 -160 275 -15 16 -61
17 -694 17 -532 0 -678 -3 -682 -12 -3 -7 -6 -4 -6 7 -1 20 5 20 561 18 635
-3 812 2 804 24 -4 9 2 8 18 -4 13 -10 22 -21 20 -24z"/>
</g>
</svg>
